
<?xml version="1.0" encoding="utf-8"?><svg version="1.1" fill="current" id="Layer_1" xmlns="http://www.w3.org/2000/svg" xmlns:xlink="http://www.w3.org/1999/xlink" x="0px" y="0px"
	 viewBox="0 0 162.5 164.3" style="enable-background:new 0 0 162.5 164.3;" xml:space="preserve"><g><g><g><path d="M92.4,105.1c0,0,10.3-11.3,23.3-12.3l4.3-26.5l28.1,39.1c2.5-7.3,3.9-15.2,3.9-23.3c0-39.1-31.7-70.8-70.8-70.8
				S10.5,43,10.5,82.1c0,39.1,31.7,70.8,70.8,70.8c4.4,0,8.7-0.4,12.8-1.2L65.8,93.8L92.4,105.1z"/></g><ellipse transform="matrix(0.9236 -0.3834 0.3834 0.9236 -35.391 57.0351)" cx="125.4" cy="117.3" rx="4.8" ry="6.2"/><ellipse transform="matrix(0.9236 -0.3834 0.3834 0.9236 -40.4227 51.1596)" cx="108.1" cy="127" rx="4.8" ry="6.2"/></g></g></svg>
